<?xml version="1.0"?>
<svg xmlns="http://www.w3.org/2000/svg" id="Line" width="512" height="512" viewBox="0 0 64 64"><path d="M57,31H31a3,3,0,0,0-3,3V60a3,3,0,0,0,3,3H57a3,3,0,0,0,3-3V34A3,3,0,0,0,57,31ZM51.8,41.6l-9,12a1,1,0,0,1-1.507.107l-6-6a1,1,0,0,1,1.414-1.414l5.185,5.185L50.2,40.4a1,1,0,1,1,1.6,1.2Z" style="fill:#c4a2fc"/><path d="M39,51a3,3,0,0,0,3-3V14a4.1,4.1,0,0,0-.1-.447l-6-12A1.047,1.047,0,0,0,35,1H7A3,3,0,0,0,4,4V48a3,3,0,0,0,3,3ZM33.684,6.868,35,4.236l3.421,6.843-4.4-2.932A1,1,0,0,1,33.684,6.868ZM6,48V4A1,1,0,0,1,7,3H33.382L31.9,5.974a3,3,0,0,0,1.02,3.838L40,14.535V48a1,1,0,0,1-1,1H7A1,1,0,0,1,6,48Zm7-37a1,1,0,0,1,1-1h9a1,1,0,0,1,0,2H14A1,1,0,0,1,13,11Zm0,4a1,1,0,0,1,1-1h9a1,1,0,0,1,0,2H14A1,1,0,0,1,13,15Zm0,8a1,1,0,0,1,1-1H32a1,1,0,0,1,0,2H14A1,1,0,0,1,13,23Zm0,6a1,1,0,0,1,1-1H32a1,1,0,0,1,0,2H14A1,1,0,0,1,13,29Zm0,6a1,1,0,0,1,1-1H32a1,1,0,0,1,0,2H14A1,1,0,0,1,13,35Zm0,6a1,1,0,0,1,1-1H32a1,1,0,0,1,0,2H14A1,1,0,0,1,13,41Z" style="fill:#151a6a"/></svg>
